<svg width="27" height="27" viewBox="0 0 27 27" fill="none" xmlns="http://www.w3.org/2000/svg">
<path d="M24.6455 18.2981V5.21936C24.6455 3.91906 23.5762 2.95468 22.2777 3.06304H22.2123C19.9209 3.25808 16.4402 4.41751 14.4979 5.63112L14.3124 5.75031C13.996 5.94535 13.4723 5.94535 13.1558 5.75031L12.883 5.58777C10.9408 4.385 7.471 3.23641 5.17961 3.0522C3.88116 2.94384 2.82275 3.91906 2.82275 5.20852V18.2981C2.82275 19.3384 3.67384 20.3136 4.72133 20.4436L5.03776 20.487C7.40553 20.8012 11.0608 21.9931 13.1558 23.1309L13.1995 23.1526C13.4941 23.3151 13.9633 23.3151 14.247 23.1526C16.3419 22.004 20.0082 20.8012 22.3869 20.487L22.7469 20.4436C23.7944 20.3136 24.6455 19.3384 24.6455 18.2981Z" stroke="#171717" stroke-width="1.5" stroke-linecap="round" stroke-linejoin="round"/>
<path d="M13.7344 6.10788V22.3615" stroke="#171717" stroke-width="1.5" stroke-linecap="round" stroke-linejoin="round"/>
<path d="M9.09691 9.35861H6.64185" stroke="#171717" stroke-width="1.5" stroke-linecap="round" stroke-linejoin="round"/>
<path d="M9.91526 12.6093H6.64185" stroke="#171717" stroke-width="1.5" stroke-linecap="round" stroke-linejoin="round"/>
</svg>
